<svg xmlns="http://www.w3.org/2000/svg" width="300" height="300"><linearGradient id="a" gradientUnits="userSpaceOnUse" x1="290.352" y1="108.981" x2="19.944" y2="265.101"><stop offset="0" stop-color="#f9ed32"/><stop offset="1" stop-color="#8dc63f"/></linearGradient><path fill="url(#a)" d="M290.521 120.526c1.125-1.054 2.223-2.135 3.331-3.206v-2.248c-1.139-2.277-2.926-3.314-5.525-3.597-11.334-1.232-22.651-2.651-33.974-3.989-14.945-1.77-29.888-3.53-44.832-5.293-13.642-1.608-27.287-3.234-40.935-4.811-9.193-1.062-18.39-2.81-27.594-2.872-10.234-.07-20.504 1.205-30.713 2.299-14.87 1.593-29.697 3.554-44.543 5.351-13.548 1.641-27.077 3.472-40.654 4.813-6.123.605-9.599 3.99-11.525 9.177-4.279 11.528-4.409 23 1.339 34.213.437.853.688 2.243.296 3.01-6.308 12.36-6.249 24.738-.478 37.245.3.648.204 1.854-.222 2.406-3.562 4.634-5.547 9.915-6.702 15.559-.596 2.912-1.096 5.839-1.641 8.761l-.001 14.047c.754 3.635 1.334 7.319 2.32 10.891a46.359 46.359 0 003.178 8.346c2.733 5.471 6.699 9.017 13.329 9.666 15.439 1.511 30.825 3.536 46.233 5.355 15.13 1.789 30.255 3.596 45.386 5.367 13.643 1.602 27.293 3.164 40.937 4.763 4.454.521 8.934.926 13.351 1.678 8.033 1.365 15.813-.762 23.688-1.461 6.03-.538 12.026-1.401 18.375-2.159 0 5.53.117 10.752-.05 15.969-.082 2.658.58 4.741 2.848 6.207h3.375c1.347-1.747 2.837-3.403 4.01-5.259 2.75-4.346 5.34-8.785 8.203-13.533 2.936 3.887 5.8 7.554 8.511 11.324 1.56 2.167 3.349 3.677 6.112 2.697 2.659-.94 3.006-3.213 2.963-5.74-.094-5.231-.026-10.466-.026-15.98 6.065-.741 11.978-1.466 17.891-2.187 7.611-.931 15.242-1.74 22.817-2.891 1.521-.231 2.841-1.771 4.255-2.709v-3.371c-1.503-.947-3.128-1.747-4.477-2.878-1.591-1.332-3.348-2.719-4.325-4.479-3.039-5.48-4.015-11.586-4.47-17.761-.606-8.186.074-16.237 3.046-23.957 1.414-3.675 2.994-7.253 7.576-8.176 1-.2 1.773-1.513 2.649-2.314v-3.371c-1.313-.936-2.68-1.802-3.918-2.827-.891-.74-1.923-1.559-2.351-2.57-3.679-8.735-3.719-17.553.021-26.27.498-1.164 2.04-1.885 3.111-2.798 1.039-.884 2.091-1.75 3.137-2.623v-3.371c-1.315-.936-2.689-1.801-3.926-2.831-.894-.74-1.926-1.566-2.35-2.583-3.682-8.76-3.697-17.591.059-26.319.478-1.111 1.914-1.799 2.885-2.71zm-224.962-9.244c19.583-2.324 39.219-4.273 58.73-7.107 12.686-1.843 24.995.208 37.421 1.572 13.566 1.49 27.115 3.198 40.673 4.784 14.858 1.739 29.718 3.448 44.58 5.183.403.047.789.261 1.139.834-5.236.639-10.474 1.288-15.712 1.917-14.76 1.77-29.569 3.203-44.263 5.412-9.047 1.362-17.849.489-26.748-.592-13.548-1.646-27.108-3.206-40.665-4.806-13.556-1.603-27.11-3.212-40.667-4.811-3.992-.471-7.989-.916-11.981-1.384-.877-.104-1.749-.267-2.622-.405l.115-.597zm-16.823 10.045c.57-1.799 1.558-1.995 3.113-1.808 8.729 1.046 17.461 2.039 26.19 3.066 13.558 1.601 27.114 3.21 40.669 4.813 13.558 1.603 27.116 3.201 40.674 4.806 2.316.273 4.63.566 7.291.896-4.043 10.199-4.198 20.425-.958 31.089-6.408-.73-12.43-1.397-18.448-2.103-13.652-1.602-27.298-3.229-40.95-4.832-11.795-1.38-23.587-2.791-35.394-4.063-2.025-.217-2.824-1.227-2.914-2.956-.307-5.862-.528-11.727-.754-17.593-.036-.931.134-1.87.112-2.804-.058-2.697-1.753-4.518-4.244-4.632-2.523-.116-4.593 1.459-4.654 4.172-.162 7.263-.054 14.531-.054 22.267-2.579-.328-5.439-.61-8.26-1.116-.596-.106-1.333-.945-1.52-1.587-2.69-9.205-2.822-18.401.101-27.615zm-26.315-2.852c.747-1.791 1.889-2.337 3.975-1.979 4.396.75 8.865 1.071 13.722 1.618-3.188 10.315-3.196 20.547-.91 31.228-4.972-.577-9.604-1.004-14.184-1.742-.955-.153-2.103-1.29-2.523-2.253-3.897-8.92-3.828-17.907-.08-26.872zm9.56 132.756c-5.76 1.564-10.223-.304-12.606-5.516-3.829-8.368-4.923-17.284-3.915-26.299.626-5.595 1.981-11.206 3.796-16.539 1.783-5.246 3.153-5.679 8.536-5.229 2.036.171 4.058.479 6.327.753-6.969 17.438-7.021 35.052-2.138 52.83zm18.156 2.735c-2.45-.247-4.603-.286-6.649-.772-.728-.173-1.42-1.343-1.752-2.204-3.858-9.97-4.982-20.386-3.691-30.869.743-6.023 2.959-11.87 4.543-17.788.553-2.067 1.696-3.114 4.061-2.504 1.699.437 3.501.479 5.48.723-3.437 8.637-5.362 17.402-5.523 26.561-.157 9.016.85 17.853 3.531 26.853zm72.333 8.526c-4.634-.514-8.982-.976-13.325-1.481-13.826-1.618-27.643-3.341-41.482-4.844-7.458-.812-7.688-.595-9.512-7.771-3.896-15.342-3.997-30.501 3.039-45.143.24-.496.522-.97.854-1.584 20.484 2.408 40.696 4.787 61.197 7.198-6.285 17.857-6.266 35.546-.771 53.625zm1.479-69.285c-1.247-5.558-1.23-11.129-.152-16.706.621-3.219-.555-5.618-3.116-6.257-2.732-.682-5.015.937-5.724 4.289-1.574 7.444-1.137 14.871.473 22.259.117.541.215 1.086.393 1.982-3.848-.412-7.522-.775-11.187-1.205a34632.243 34632.243 0 01-51.79-6.085c-9.094-1.076-18.191-2.127-27.263-3.381-1.132-.158-2.602-1.269-3.065-2.313-3.943-8.916-3.843-17.925-.073-26.896.694-1.648 1.763-2.172 3.744-1.932 21.618 2.608 43.254 5.061 64.881 7.579 14.386 1.676 28.771 3.385 43.155 5.088.447.054.879.234 1.596.433-3.254 10.124-3.385 20.36-1.439 30.933-.977-.129-1.595-.21-2.212-.294-6.749-.918-6.746-.92-8.221-7.494zm16.589 71.378c-2.391-.237-4.617-.271-6.732-.775-.714-.173-1.288-1.474-1.678-2.366-4.504-10.286-5.537-21.137-4.241-32.106.692-5.858 2.7-11.562 4.124-17.331.4-1.621 1.32-2.233 3.063-1.846 1.882.42 3.827.556 6.001.847-6.17 17.967-6.079 35.572-.537 53.577zm23.082 2.739c-3.85-.41-7.389-.647-10.861-1.259-.908-.158-1.913-1.343-2.363-2.3-4.847-10.291-5.794-21.253-4.546-32.326.662-5.865 2.604-11.593 4.113-17.346.193-.737 1.311-1.818 1.928-1.771 4.355.32 8.691.896 13.375 1.431-8.378 17.694-8.141 35.386-1.646 53.571zm2.048-62.704c-4.674-.519-9.106-1.004-13.538-1.505-1.671-.188-3.338-.561-5.008-.573-2.389-.017-3.379-1.162-3.798-3.428-1.607-8.667-2.006-17.256 1.113-25.701.453-1.222.786-2.461 2.643-2.224 6.472.828 12.954 1.542 19.661 2.324-4.187 10.277-4.187 20.459-1.073 31.107zm74.091 68.572c-1.841-2.431-3.302-4.418-4.823-6.354-2.596-3.302-5.932-3.145-8.197.399-1.479 2.314-2.868 4.684-4.822 6.868v-11.65c0-7.762-.042-15.518.057-23.276.013-.868.716-2.401 1.271-2.485 5.426-.809 10.888-1.377 16.517-2.033l-.003 38.531zm9.34-12.889v-26.612c.834-.183 1.734-.38 2.633-.575 2.813-.611 4.27-2.573 3.877-5.217-.353-2.364-2.394-3.99-5.108-3.722-5.113.501-10.212 1.175-15.314 1.787-7.421.894-14.839 1.823-22.262 2.689-4.272.496-6.378 2.713-5.563 6 .497 1.996 1.819 2.89 5.48 3.662v26.289c-5.887.735-11.704 1.488-17.528 2.184-5.377.646-10.802 1.031-16.138 1.933-2.719.456-4.624-.341-5.523-2.576-1.83-4.554-3.8-9.161-4.729-13.936-1.833-9.396-1.183-18.805 1.773-27.975.453-1.417 1.046-2.797 1.678-4.144 1.415-3.028 3.319-4.861 7.128-5.271 20.16-2.174 40.279-4.706 60.411-7.137 11.598-1.396 23.19-2.838 34.783-4.252.355-.042.719-.005 1.286-.005-6.421 17.931-6.744 35.556 1.648 53.42-9.54 1.155-18.913 2.293-28.532 3.458zm11.167-64.276a85688.228 85688.228 0 01-44.524 5.357c-12.521 1.506-25.04 3.058-37.581 4.391-.911.096-2.424-1.241-2.932-2.269-2.604-5.251-3.235-10.937-2.48-16.665.446-3.375 1.453-6.729 2.648-9.929.394-1.053 2.104-2.123 3.328-2.275 25.864-3.241 51.745-6.352 77.62-9.484 6.307-.763 12.614-1.525 18.925-2.258.816-.095 1.65-.013 2.494-.013-2.675 18.249-2.66 18.595 1.353 30.859-6.323.769-12.586 1.531-18.851 2.286zm5.213-41.044c-16.796 2.028-33.589 4.05-50.387 6.054-12.248 1.463-24.495 2.956-36.765 4.242-.95.1-2.519-1.096-3.021-2.083-2.671-5.23-3.263-10.919-2.589-16.655.377-3.208 1.34-6.369 2.277-9.479.563-1.877 1.854-2.814 4.116-3.076 25.806-3.009 51.592-6.19 77.382-9.305 7.036-.848 14.079-1.623 21.529-2.479-3.067 10.647-3.082 20.746 1.104 31.04-4.679.599-9.161 1.198-13.646 1.741z"/></svg>