<svg xmlns="http://www.w3.org/2000/svg" width="300" height="300"><linearGradient id="a" gradientUnits="userSpaceOnUse" x1="511.69" y1="-397.898" x2="349.786" y2="-117.473" gradientTransform="matrix(1 0 0 -1 -291.825 -81.175)"><stop offset="0" stop-color="#be1e2d"/><stop offset="1" stop-color="#f15a29"/></linearGradient><path fill="url(#a)" d="M85.608 179.656c8.438 0 16.552.037 24.665-.067.651-.009 1.65-.838 1.881-1.498 2.063-5.91 3.99-11.864 5.909-17.658-1.807-1.653-3.52-3.112-5.108-4.694-13.133-13.101-26.215-26.252-39.386-39.312-1.97-1.954-2.846-3.998-2.833-6.807.099-19.375.09-38.748.008-58.123-.011-2.575.775-4.484 2.586-6.284a8997.121 8997.121 0 0041.099-41.098c1.793-1.805 3.688-2.628 6.272-2.617 19.579.083 39.16-.021 58.739.147 1.922.016 4.312.964 5.673 2.302a3360.344 3360.344 0 0141.534 41.533c1.344 1.365 2.324 3.742 2.343 5.659.167 19.682.165 39.366.003 59.047-.019 1.923-.963 4.314-2.304 5.676-13.722 13.966-27.61 27.771-41.472 41.597-.938.937-2.053 1.696-3.435 2.823 1.969 5.957 3.995 12.172 6.125 18.349.161.474 1.077.971 1.651.979 4.819.077 9.642.044 14.818.044 0-4.742-.012-9.239.004-13.736.018-4.342 1.649-6.033 5.898-6.044 9.277-.021 18.551-.021 27.825 0 4.092.014 5.799 1.728 5.826 5.812.027 4.52.006 9.04.006 13.974 1.783 0 3.395-.026 5 .004 5.579.106 9.818 4.214 9.823 9.771.036 33.082.036 66.16-.003 99.242-.005 5.398-4.218 9.548-9.587 9.693-2.061.053-4.122.011-6.184.011-63.272 0-126.546-.087-189.82.121-7.212.024-12.271-4.323-12.192-12.318.316-31.738.16-63.48.09-95.221-.009-3.751.985-6.809 3.824-9.344.696-.621 1.086-1.908 1.113-2.904.118-4.428.021-8.859.062-13.293.034-3.73 1.774-5.525 5.459-5.539 9.583-.037 19.168-.043 28.751.003 3.497.017 5.281 1.844 5.323 5.367.053 4.634.014 9.271.014 14.403zm163.124 88.987v-49.28h-49.999c.277.769.442 1.335.684 1.869 3.47 7.607 5.049 15.569 4.97 23.941-.126 13.287-.033 26.574-.033 39.858v3.257h44.301v-9.821h-14.366v-9.824h14.443zM95.403 278.897c-9.238-1.665-14.488-6.892-14.731-14.433-.118-3.659.862-6.912 3.083-9.796 2.93-3.805 6.966-5.537 11.847-5.955-.682-10.304 1.09-19.997 5.707-29.337H51.163v68.911h44.24v-9.39zm9.996-34.964c-.008 24.392 20.023 44.499 44.411 44.575 24.357.076 44.539-19.963 44.652-44.336.114-24.477-20.14-44.808-44.567-44.737-24.422.068-44.484 20.131-44.496 44.498zm-20.243-131.21c10.899 10.912 21.715 21.737 32.554 32.587l18.596-44.842-6.54-6.071c-14.92 6.127-29.912 12.287-44.61 18.326zm87.842 37.123c-.491-1.27-.836-2.217-1.221-3.148-5.1-12.35-10.342-24.643-15.223-37.077-1.543-3.934-3.147-6.389-7.987-5.623-2.068.328-3.212.589-4.044 2.638-5.506 13.519-11.149 26.981-16.735 40.465-.339.822-.57 1.688-.923 2.744l46.133.001zm41.439-36.697c.092.115.002-.113-.152-.178-14.306-5.981-28.607-11.965-42.943-17.868-.657-.269-1.844-.063-2.4.393-1.875 1.546-3.579 3.304-5.425 5.053 6.24 15.061 12.478 30.109 18.608 44.906 10.818-10.82 21.547-21.545 32.312-32.306zm4.598-9.088V57.645c-14.941 6.159-29.599 12.203-43.909 18.104-.219 3.533-.408 6.584-.606 9.82 14.743 6.123 29.5 12.254 44.515 18.492zm-36.733-88.317c-5.249 12.671-10.379 25.327-15.773 37.872-1.425 3.308-2.406 5.984 1.453 8.21.925.534 1.691 1.575 2.193 2.556.928 1.81 1.981 1.795 3.718 1.063 9.846-4.147 19.75-8.155 29.628-12.222 3.861-1.589 7.708-3.208 11.452-4.767l-32.671-32.712zm-96.99 32.707c.429.189 1.16.53 1.902.84 12.212 5.097 24.473 10.079 36.604 15.359 3.169 1.379 5.402 1.756 7.137-1.778.472-.965 1.417-1.823 2.344-2.413 1.854-1.177 1.894-2.445 1.081-4.369-5.392-12.756-10.663-25.563-15.986-38.348-.285-.688-.679-1.332-.807-1.579-10.824 10.83-21.557 21.565-32.275 32.288zm-4.521 55.122c1.424-.529 2.67-.95 3.883-1.448 11.965-4.909 23.925-9.834 35.888-14.748 4.689-1.926 4.688-1.92 4.293-7.131-.047-.613-.154-1.271-.001-1.846.544-2.029-.396-2.804-2.211-3.546-13.018-5.315-25.981-10.768-38.964-16.169-.89-.371-1.804-.682-2.888-1.091v45.979zm92.352-91.885h-46.424l17.68 42.591h11.096c5.825-14.059 11.699-28.237 17.648-42.591zM51.043 209.22c.724.052 1.215.12 1.708.12 17.725.003 35.449.041 53.171-.074 1.197-.01 2.67-.896 3.537-1.823 6.239-6.657 13.521-11.731 22.154-14.712 3.537-1.221 7.219-2.024 10.634-2.964H51.042l.001 19.453zm126.55-29.654c-2.097-6.339-4.035-12.382-6.157-18.355-.227-.646-1.516-1.304-2.317-1.307a3486.607 3486.607 0 00-38.267-.017c-.784.003-2.079.416-2.267.949-2.172 6.137-4.173 12.332-6.292 18.729l55.3.001zM164.896 79.154c.019-8.393-6.663-15.162-14.974-15.167-8.272-.004-14.96 6.79-14.962 15.203 0 8.184 6.693 14.965 14.831 15.028 8.29.063 15.088-6.715 15.105-15.064zm-7.594 110.527c10.702 1.845 20.75 5.62 28.237 13.414 5.145 5.354 10.484 6.969 17.358 6.314 3.728-.356 7.516-.063 11.205-.063v-19.665h-56.8zm66.903 19.469h24.477v-19.366h-24.477v19.366zM56.061 179.44h19.426v-9.532H56.061v9.532zm158.337-9.578v9.624h19.459v-9.624h-19.459zm-108.755 107.86v10.555h10.592c-3.323-3.313-7.244-7.22-10.592-10.555zm88.779-.211c-3.519 3.533-7.49 7.515-10.71 10.748h10.71v-10.748zm-97.637-8.877c.643-.7 2.619-1.866 2.865-3.329.465-2.729-2.472-6.491-4.268-6.463-2.545.043-4.881 2.49-4.807 5.037.077 2.573 2.506 4.879 6.21 4.755zm127.166 9.79v-9.485h-9.541v9.485h9.541zm-73.955-74.026c21.974.028 39.524 17.657 39.511 39.694-.013 21.93-17.684 39.455-39.774 39.444-21.717-.011-39.388-17.765-39.361-39.551.026-22.03 17.627-39.613 39.624-39.587zm29.621 39.557c.015-16.112-13.378-29.604-29.453-29.677-16.384-.073-29.933 13.45-29.908 29.854.024 16.056 13.543 29.529 29.615 29.516 16.318-.013 29.732-13.405 29.746-29.693zm-94.261-39.794v-9.498H61.034v9.498h24.322zm118.795.042v-9.471h-9.524v9.471h9.524z"/></svg>