<svg xmlns="http://www.w3.org/2000/svg" width="300" height="300"><linearGradient id="a" gradientUnits="userSpaceOnUse" x1="316.917" y1="-400.291" x2="566.712" y2="-150.496" gradientTransform="matrix(1 0 0 -1 -291.825 -81.175)"><stop offset="0" stop-color="#2bb673"/><stop offset="1" stop-color="#27aae1"/></linearGradient><path fill="url(#a)" d="M11.839 289.351h92.391l.013-.337c-7.103-.45-14.208-.872-21.311-1.354-16.8-1.138-33.687-1.501-50.191-5.355-2.495-.583-4.909-1.51-7.362-2.269-2.852-.884-4.084-2.763-4.023-5.787.115-5.852.033-11.709.033-17.563 0-59.938.005-119.875-.02-179.814-.001-2.271.007-4.603 2.335-5.641 1.308-.583 3.175-.815 4.482-.348 9.917 3.553 20.279 4.559 30.633 5.416 21.043 1.743 42.124 3.051 63.156 4.921 9.069.807 17.99 2.798 26.425 6.52.864.382 2.173.451 3.017.078 10.018-4.429 20.666-6.281 31.423-7.196 19.758-1.68 39.567-2.746 59.329-4.378 10.05-.83 20.12-1.881 29.712-5.465 3.657-1.366 6.683.969 6.7 5.039.044 9.924.017 19.847.017 29.771 0 34.633-.035 69.265.027 103.9.015 7.32-1.269 14.158-5.603 20.253-.897 1.264-1.33 2.858-1.982 4.301-8.632 19.118-22.854 33.372-39.565 45.462-.722.521-1.488.988-2.188 1.541-6.629 5.262-14.112 7.656-22.614 7.297-3.631-.155-7.292.45-10.932.989h92.403v-3.55c0-63.411 0-126.822.003-190.232 0-4.167 1.522-6.105 4.751-6.103 2.646.001 4.51 1.682 4.731 4.318.065.789.021 1.586.021 2.381l.001 195.889c-.001 5.764-1.198 6.967-6.935 6.967-93.877 0-187.752 0-281.629-.003-5.513 0-6.755-1.259-6.755-6.841V95.672c0-4.335 1.588-6.331 4.926-6.225 2.512.079 4.319 1.71 4.548 4.196.091.985.029 1.982.029 2.975v189.043c.004 1.164.004 2.334.004 3.69zM269.093 82.29c-8.365 1.182-16.36 2.7-24.426 3.373-19.752 1.647-39.572 2.545-59.294 4.478-9.186.902-18.214 3.462-27.296 5.366-2.5.523-3.424 2.011-3.419 4.86.114 60.904.087 121.808.087 182.712v3.335c2.144-.646 3.921-1.225 5.722-1.711 17.157-4.642 34.814-5.339 52.403-6.36 4.292-.247 6.914-1.978 8.574-5.573.989-2.139 1.854-4.387 2.401-6.675 2.538-10.607 2.371-21.433 2.376-32.24.004-5.425 2.28-7.135 7.533-5.717 6.362 1.718 12.808 2.489 19.408 1.861 8.206-.778 13.78-5.402 15.226-13.053.493-2.611.674-5.319.674-7.983.04-41.264.029-82.527.029-123.792.002-.983.002-1.966.002-2.881zM30.894 82.1v3.3c0 60.909.027 121.819-.078 182.728-.005 3.109.959 4.182 3.899 4.828 16.745 3.692 33.823 3.926 50.799 5.267 13.036 1.027 26.083 2.026 39.065 3.546 6.915.807 13.706 2.691 20.663 4.113v-180.39c0-9.565.011-9.608-9.476-11.943-17.335-4.264-35.11-4.673-52.787-5.965-11.958-.874-23.917-1.772-35.848-2.919-5.376-.519-10.69-1.668-16.237-2.565zm205.191 157.29c-.531 8.154-1.092 16.753-1.657 25.45 9.22-7.065 17.591-14.97 23.361-25.45h-21.704zm-62.205-27.015c.007-.695 1.073-1.883 1.779-1.989 4.893-.757 9.804-1.482 14.74-1.85 14.437-1.076 28.888-1.971 43.333-2.955 5.323-.361 10.642-.785 16.307-1.207 0 3.647-.027 7.193.009 10.741.034 3.324 1.796 5.242 4.729 5.251 2.933.009 4.73-1.915 4.755-5.224.039-4.961.019-9.925.01-14.887-.008-4.896-1.626-6.411-6.506-6.057-19.677 1.433-39.366 2.737-59.028 4.375-8.38.697-16.718 1.984-25.041 3.217-3.599.534-4.661 2.099-4.665 5.709-.012 16.87-.017 33.739.004 50.61.005 4.372 2.375 6.09 6.737 5.458a532.73 532.73 0 0121.805-2.717c7.002-.719 14.042-1.073 21.048-1.744 2.71-.258 4.156-2.275 3.953-4.985-.198-2.662-1.702-4.199-4.326-4.422-1.472-.123-2.972.075-4.454.197-11.646.959-23.292 1.933-35.266 2.93-.003-13.484-.029-26.968.077-40.451zm6.112-97.925c18.974-1.496 37.96-2.815 56.936-4.282 6.124-.473 12.236-1.122 18.337-1.855 2.999-.36 4.604-2.636 4.233-5.444-.354-2.669-2.306-4.232-5.267-4.04-2.172.141-4.328.543-6.501.7-19.677 1.424-39.368 2.697-59.029 4.289-6.896.557-13.742 1.774-20.579 2.897-2.86.47-4.286 2.767-3.756 5.442.507 2.553 2.113 3.943 4.632 4.016 3.762-.605 7.357-1.436 10.994-1.723zm14.081 12.675c-8.477.667-16.906 2.024-25.327 3.276-3.459.515-4.998 2.894-4.358 5.827.628 2.882 2.984 4.002 6.481 3.534 8.833-1.185 17.663-2.486 26.537-3.235 18.864-1.594 37.755-2.853 56.633-4.277 3.834-.289 5.685-2.121 5.478-5.223-.208-3.129-2.281-4.586-6.102-3.947-19.783 1.324-39.575 2.492-59.342 4.045zm.072 23.813c-8.478.664-16.91 2.015-25.33 3.262-3.489.516-5.034 2.845-4.44 5.775.591 2.905 2.956 4.082 6.423 3.621 8.931-1.188 17.859-2.504 26.832-3.262 18.862-1.594 37.755-2.85 56.632-4.279 3.679-.279 5.589-2.34 5.245-5.436-.328-2.969-2.374-4.354-6.028-3.728-19.777 1.324-39.574 2.497-59.334 4.047zm-.018 23.818c-8.478.664-16.909 2.017-25.33 3.265-3.479.515-5.024 2.86-4.418 5.79.599 2.897 2.961 4.059 6.438 3.598 8.934-1.188 17.863-2.5 26.835-3.259 18.864-1.593 37.754-2.849 56.631-4.279 3.672-.278 5.58-2.354 5.227-5.452-.336-2.959-2.387-4.337-6.044-3.709-19.781 1.323-39.575 2.495-59.339 4.046zm-58.437-27.468c0 11.405.009 22.812-.004 34.215-.004 4.822-2.214 6.388-6.935 5.813-11.79-1.434-23.599-2.78-35.43-3.808-15.988-1.389-32.007-2.423-48.006-3.67-3.181-.248-4.854-2.107-4.857-5.256a35262.01 35262.01 0 01-.001-70.512c.004-3.688 1.924-5.483 5.613-5.211 15.021 1.101 30.042 2.178 45.049 3.423 11.547.957 23.107 1.885 34.599 3.326 9.726 1.219 10.148 1.172 10.007 11.038-.148 10.21-.035 20.427-.035 30.642zm-9.508 29.118c0-19.664.016-39.59-.073-59.518-.002-.619-1.037-1.701-1.686-1.78-7.57-.921-15.144-1.868-22.744-2.463-11.465-.895-22.952-1.497-34.427-2.265-5.689-.379-11.373-.852-16.995-1.277-.148.44-.263.623-.263.806-.02 19.644-.01 39.286-.079 58.93-.006 1.854.929 2.074 2.374 2.173 6.13.418 12.255.909 18.383 1.354 18.376 1.343 36.754 2.677 55.51 4.04zm-85.707 26.616c-.326 3.017 1.474 5.13 4.951 5.404 15.908 1.251 31.833 2.275 47.729 3.671 12.03 1.059 24.03 2.492 36.026 3.891 3.448.403 5.816-.729 6.424-3.637.604-2.911-.955-5.188-4.453-5.772-6.345-1.056-12.706-2.202-19.107-2.702-21.838-1.696-43.699-3.126-65.55-4.661-3.637-.567-5.701.832-6.02 3.806zm.012 23.691c-.4 3.027 1.385 5.236 4.813 5.521 12.837 1.068 25.696 1.916 38.526 3.075 15.185 1.375 30.355 2.946 45.521 4.537 3.244.343 5.579-.776 6.234-3.55.687-2.91-.861-5.285-4.308-5.861-6.442-1.074-12.9-2.24-19.4-2.745-21.74-1.696-43.501-3.116-65.254-4.644-3.715-.576-5.745.729-6.132 3.667zm-.017 24.073c-.244 2.925 1.485 4.949 4.787 5.267 8.778.846 17.557 1.735 26.353 2.351 19.467 1.359 39.019 1.741 58.286 5.318 3.145.585 5.62-1.408 5.762-4.454.128-2.819-1.289-4.588-4.051-4.958-9.124-1.221-18.238-2.6-27.399-3.43-11.154-1.011-22.356-1.485-33.533-2.271-8.402-.593-16.795-1.314-25.193-1.977-2.852-.233-4.785 1.434-5.012 4.154z"/></svg>