<svg xmlns="http://www.w3.org/2000/svg" width="300" height="300"><linearGradient id="a" gradientUnits="userSpaceOnUse" x1="304.223" y1="-113.129" x2="556.374" y2="-365.281" gradientTransform="matrix(1 0 0 -1 -291.825 -81.175)"><stop offset="0" stop-color="#9e1f63"/><stop offset=".968" stop-color="#ec008c"/><stop offset="1" stop-color="#f15a29"/></linearGradient><path fill="url(#a)" d="M295.807 78.847v3.417c-2.737 2.626-5.067 3.283-6.826 1.508-1.063-1.073-1.712-2.683-2.201-4.166-1.601-4.83-3.565-9.447-7.662-12.699-15.742-12.495-40.033-6.166-47.622 12.462-2.03 4.986-3.564 10.174-5.325 15.269-.786 2.278-2.388 3.698-4.747 3.955-2.291.25-3.995-.943-5.192-2.844-.887-1.409-1.715-2.857-2.755-4.601-.763 2.229-1.442 3.998-1.979 5.809a3815.906 3815.906 0 00-6.458 22.062c-.734 2.531-2.032 4.487-4.804 5.055-2.673.55-4.581-.707-6.115-2.705-.433-.566-.675-1.28-1.007-1.928-.305.206-.616.411-.927.616-1.277 7.25-2.513 14.509-3.854 21.75-1.201 6.499-4.324 8.038-10.477 5.028-1.158 6.795-2.304 13.504-3.447 20.215.317.197.637.395.956.591.602-.846 1.097-1.8 1.822-2.524 23.743-23.775 47.509-47.53 71.272-71.289 3.333-3.328 5.598-3.797 7.758-1.619 2.166 2.179 1.693 4.377-1.684 7.753-23.823 23.83-47.645 47.665-71.507 71.457-.693.69-1.851.921-2.789 1.366.358.411.718.818 1.077 1.23l20.156-3.483c-.138-.473-.178-.75-.296-.988-2.45-4.869-.774-8.332 4.539-9.313 2.142-.396 4.307-.669 6.445-1.071 5.431-1.022 10.856-2.087 16.284-3.134.086-.235.17-.471.258-.706-.341-.171-.712-.3-1.019-.522-2.27-1.631-4.017-3.581-3.374-6.648.658-3.148 3.057-4.271 5.896-5a342.856 342.856 0 0014.216-3.968c4.158-1.259 8.255-2.718 12.882-4.258-1.841-1.081-3.148-1.829-4.434-2.611-2.003-1.217-3.317-2.922-3.063-5.355.261-2.53 1.852-4.038 4.234-4.814 3.422-1.112 6.8-2.357 10.238-3.413 10.097-3.098 17.49-9.171 21.561-19.096 1.252-3.055 3.643-4.121 6.055-3.057 2.367 1.046 3.05 3.452 1.847 6.542-3.332 8.555-9.03 15.125-17.052 19.496-4.095 2.231-8.528 3.847-12.765 5.722 7.37 5.913 4.021 12.804-3.684 14.806-6.856 1.783-13.553 4.188-20.318 6.326-1.011.321-2.005.679-3.151 1.067 4.216 5.002 3.96 10.019-.634 12.28-1.905.938-2.045 2.08-2.042 3.765.023 26.481.014 52.966.023 79.447 0 .885.105 1.772.192 3.159.827-1.128 1.288-1.813 1.807-2.447 3.305-4.033 7.746-4.965 12.581-4.247 4.455.66 8.244 3.121 9.095 7.512.853 4.382 3.514 6.278 6.891 8.035 1.005.521 1.964 1.153 2.88 1.822 7.035 5.133 7.063 14.313-.008 19.439-2.143 1.551-4.604 2.665-6.721 4.247-.974.727-1.854 2.018-2.102 3.195-1.143 5.419-4.813 9.11-10.312 9.994-5.794.937-11.05-1.35-13.475-6.241-.885-1.786-1.946-2.109-3.713-2.108-26.861.047-53.724.034-80.588.031-.949 0-1.931.108-2.838-.099-2.313-.533-3.646-1.994-3.494-4.464.146-2.305 1.479-3.631 3.743-3.928 1.027-.136 2.084-.074 3.127-.074 26.201-.003 52.396-.003 78.596-.003h3.484V259.59H43.667v20.262h3.549c26.674 0 53.348-.006 80.02.006 3.532 0 5.592 1.616 5.588 4.274-.001 2.657-2.083 4.255-5.595 4.287-.664.006-1.329 0-1.995 0-26.292 0-52.586.027-78.877-.049-2.203-.007-3.487.401-4.593 2.562-2.383 4.658-7.74 6.751-13.426 5.754-5.146-.897-9.247-4.569-9.795-9.349-.256-2.238-1.287-3.332-3.061-4.299-4.661-2.539-9.271-5.172-11.293-10.554v-5.695c1.655-4.14 4.594-7.047 8.533-9.046 1.265-.642 2.582-1.298 3.619-2.231.884-.798 1.802-1.922 2.017-3.034.954-4.953 3.644-8.339 8.519-9.607 6.657-1.732 12.078.159 15.824 6.519V66.53c-.567.905-.847 1.403-1.172 1.865-3.067 4.35-8.352 6.278-13.844 5.058-5.139-1.141-8.303-4.747-9.392-10.176-.231-1.157-1.358-2.429-2.421-3.078-4.676-2.861-9.695-5.278-11.681-10.979v-5.695c1.721-4.225 4.844-7.076 8.837-9.107 1.178-.6 2.422-1.205 3.367-2.094.868-.818 1.766-1.948 1.965-3.064.873-4.838 4.09-8.509 8.834-9.678 7.076-1.739 12.05.712 16.062 8.008h1.628c62.226 0 124.451-.01 186.678.047 1.81 0 2.589-.641 3.377-2.171 2.492-4.836 7.727-7.134 13.51-6.187 5.49.9 9.159 4.604 10.28 10.013.243 1.175 1.2 2.336 2.114 3.198.942.888 2.237 1.403 3.376 2.081 3.188 1.898 6.306 3.806 7.734 7.577 1.441 3.806.756 7.349-1.009 10.778.311.189.461.312.633.381.88.348 1.764.68 2.647 1.018 7.493 2.871 13.726 7.296 17.405 14.64 1.6 3.195 2.8 6.584 4.178 9.882zM151.801 190.328c1.126-.961 2.63-1.819 1.789-4.491-.984-3.117 2.077-5.532 5.389-4.911.956.178 2.172-.267 3.071-.771.878-.491 1.59-1.362 2.219-2.184.643-.839 1.096-1.821 1.636-2.743-1.034-.24-2.068-.698-3.105-.698-26.387-.038-52.775-.032-79.164-.033-.946 0-1.91.06-2.841-.077-2.418-.358-3.939-2.203-3.746-4.547.202-2.443 1.605-3.756 4.041-3.922 1.038-.07 2.086-.062 3.131-.062h81.607c.636-3.955 1.208-7.494 1.823-11.314h-3.541c-26.864 0-53.724 0-80.586-.002-.949 0-1.923.1-2.841-.084-2.325-.463-3.729-1.873-3.639-4.343.087-2.432 1.447-3.833 3.878-4.082 1.034-.104 2.085-.064 3.128-.064 27.243-.003 54.484-.003 81.726-.003h3.326c1.563-8.251 5.579-9.649 11.036-8.642l.473-2.703h-3.718l-93.401-.001c-.949 0-1.921.103-2.842-.069-2.359-.439-3.677-1.909-3.61-4.352.064-2.303 1.37-3.684 3.62-4.046 1.021-.164 2.084-.081 3.126-.081 31.705-.003 63.407-.001 95.11-.001h3.362l2.251-11.353H83.922c-1.045 0-2.099.068-3.128-.066-2.422-.315-3.75-1.791-3.756-4.204-.006-2.438 1.388-3.86 3.771-4.219.928-.14 1.895-.06 2.842-.06 31.895-.001 63.788-.045 95.678.057 3.706.011 7.877-1.45 10.938 2.181.094.108.368.043.545.101 2.387.76 4.769 1.528 7.301 2.342.013-.035.201-.555.37-1.081 2.617-8.102 5.109-16.246 7.893-24.289 1.706-4.927 6.787-6.605 10.776-3.81 1.114.778 2.01 1.866 3.017 2.823 4.943-10.609 5.854-14.294 4.718-19.007H51.729v185.03h173.393v-84.888c-4.411.762-8.605 1.479-12.796 2.225-.444.08-.863.301-1.267.445.931 6.313-1.237 9.43-7.374 10.58-5.489 1.029-10.973 2.163-16.512 2.853-4.634.578-9.252 2.334-14.042.721-.492-.167-1.374.387-1.893.821-1.016.85-1.872 1.889-2.851 2.783-1.104 1.01-1.663 1.833-1.01 3.6 1.075 2.889-1.878 6.164-4.749 5.154-2.805-.987-3.654.636-4.981 2.243 1.043 1.131 2.065 2.124 2.953 3.224 2.834 3.517 3.055 8.495.609 12.224-2.442 3.719-7.286 5.819-11.412 4.328-2.294-.827-3.488-.143-4.784 1.403-4.012 4.784-8.621 8.277-15.29 8.612-4.749.241-8.396-2.459-8.149-7.173.269-5.078 1.065-10.019 5.577-13.422 1.275-.96 2.225-2.347 3.462-3.37 1.435-1.185 1.617-2.293 1.023-4.131-1.185-3.668-.366-7.203 2.347-9.995 2.663-2.742 6.067-4.25 9.808-2.912 2.761.988 5.203 2.856 8.01 4.456zm81.51-153.957H43.624v20.147h189.687V36.371zM26.907 46.305c0 4.937.06 9.873-.023 14.808-.044 2.658 1.273 3.827 3.751 3.953 2.694.137 4.22-1.103 4.241-3.81.074-9.871.075-19.744.001-29.614-.021-2.745-1.424-3.811-4.245-3.751-2.564.054-3.787 1.255-3.745 3.895.074 4.839.02 9.679.02 14.519zm8.007 223.42c0-4.746.028-9.491-.011-14.238-.025-3.253-1.268-4.569-4.121-4.533-2.771.032-3.863 1.234-3.87 4.386-.015 9.491-.017 18.983 0 28.475.007 3.254.965 4.288 3.862 4.317 2.984.032 4.101-1.125 4.129-4.454.04-4.65.011-9.302.011-13.953zm207.282-.365c0 4.937-.027 9.87.013 14.805.021 2.945 1.077 3.964 3.922 3.968 2.771.006 4.028-1.099 4.047-3.956.059-9.681.054-19.359.006-29.039-.017-2.965-1.413-4.254-4.182-4.184-2.673.067-3.777 1.24-3.796 4.17-.031 4.747-.01 9.491-.01 14.236zm7.985-216.494c0-7.185.067-14.375-.033-21.565-.037-2.63-1.845-3.5-4.271-3.412-2.375.086-3.712 1.107-3.688 3.649.041 4.548.009 9.098.009 13.648v10.641c2.883-1.071 5.336-1.979 7.983-2.961zM141.689 194.014c-.635.422-1.561.731-1.595 1.119-.07.818.059 1.929.576 2.474 3.127 3.307 6.38 6.494 9.612 9.698.939.933 2.146 2.222 3.257.696.455-.627-.04-2.547-.732-3.305-2.936-3.221-6.099-6.238-9.207-9.298-.517-.508-1.187-.866-1.911-1.384zm-11.187 23.972c5.208-.899 7.009-5.208 10.052-7.552-.831-1.062-1.514-1.934-2.453-3.129-2.316 3.793-7.029 5.327-7.599 10.681zM17.165 51.367c.272-.19.542-.384.813-.574v-8.786l-.78-.545c-1.458 1.658-4.027 3.3-4.054 4.978-.024 1.623 2.574 3.286 4.021 4.927zm-.104 223.181l.868-.624v-8.761l-.769-.489c-1.445 1.589-4.075 3.216-4.025 4.756.056 1.746 2.513 3.415 3.926 5.118zm242.841-233.14l-.98.621v9.268c2.057-1.549 5.365-1.855 4.906-4.699-.307-1.893-2.55-3.472-3.926-5.19zm-.068 223.14c-.291.21-.579.419-.871.627v8.882c.267.182.534.362.803.547 1.419-1.662 3.947-3.32 3.95-4.983.003-1.688-2.486-3.383-3.882-5.073zM183.386 94.866c1.041 0 2.093.034 3.123-.077 2.434-.263 3.793-1.718 3.868-4.114.073-2.441-1.373-3.842-3.693-4.32-.733-.151-1.513-.082-2.271-.082-33.85-.001-67.698-.001-101.547.004-.852 0-1.746-.078-2.544.15-2.141.611-3.408 2.022-3.28 4.356.126 2.295 1.384 3.671 3.664 3.984 1.025.14 2.08.098 3.123.098 16.594.004 33.186.003 49.78.003 16.59.002 33.182.004 49.777-.002zm-68.471 139.367c3.729-.018 5.871-1.586 5.959-4.288.088-2.766-2.149-4.444-6.018-4.514h-.284c-10.517 0-21.034-.009-31.549.017-1.031.004-2.351-.122-3.025.432-1.197.981-2.46 2.313-2.856 3.731-.529 1.899.649 3.506 2.598 4.143 1.055.345 2.222.454 3.34.465 5.305.046 10.611.021 15.917.021s10.612.015 15.918-.007zm.44-39.824c3.435-.021 5.544-1.741 5.517-4.397-.027-2.533-2.031-4.236-5.323-4.25a4235.38 4235.38 0 00-33.248-.001c-3.5.015-5.224 1.479-5.278 4.2-.055 2.791 1.866 4.425 5.367 4.446 5.494.034 10.988.01 16.482.01 5.494.003 10.988.024 16.483-.008zm.366 19.892c3.54-.046 5.783-2.51 5-5.324-.739-2.651-2.785-3.367-5.259-3.367-6.155-.002-12.311-.005-18.469-.005-4.925 0-9.852-.049-14.775.024-3.25.053-4.869 1.316-5.148 3.737-.346 2.989 1.55 4.897 5.125 4.94 5.494.066 10.988.019 16.481.019 5.679 0 11.364.059 17.045-.024z"/></svg>